<svg width="20" height="20" viewBox="0 0 20 20" fill="none" xmlns="http://www.w3.org/2000/svg">
<path d="M10 0.5C11.3183 0.5 12.5508 0.750248 13.7021 1.24707C14.8631 1.74806 15.8683 2.42493 16.7217 3.27832C17.5751 4.13171 18.2519 5.13694 18.7529 6.29785C19.2498 7.44922 19.5 8.68174 19.5 10C19.5 11.3183 19.2498 12.5508 18.7529 13.7021C18.2519 14.8631 17.5751 15.8683 16.7217 16.7217C15.8683 17.5751 14.8631 18.2519 13.7021 18.7529C12.5508 19.2498 11.3183 19.5 10 19.5C8.68174 19.5 7.44922 19.2498 6.29785 18.7529C5.13694 18.2519 4.13171 17.5751 3.27832 16.7217C2.42493 15.8683 1.74806 14.8631 1.24707 13.7021C0.750248 12.5508 0.5 11.3183 0.5 10C0.5 8.68174 0.750248 7.44922 1.24707 6.29785C1.74806 5.13694 2.42493 4.13171 3.27832 3.27832C4.13171 2.42493 5.13694 1.74806 6.29785 1.24707C7.44922 0.750248 8.68174 0.5 10 0.5ZM9.9375 1.50098C7.60124 1.51543 5.60288 2.34048 3.97168 3.97168C2.32595 5.61741 1.5 7.63686 1.5 10C1.5 12.3631 2.32595 14.3826 3.97168 16.0283C4.34949 16.4061 4.74818 16.739 5.16504 17.0303L5.07324 17.3359L5.32617 17.1416C6.68753 18.0458 8.24918 18.5 10 18.5C11.7505 18.5 13.3116 18.0455 14.6729 17.1416L14.9268 17.3359L14.834 17.0303C15.2511 16.7389 15.6503 16.4063 16.0283 16.0283C17.6741 14.3826 18.5 12.3631 18.5 10C18.5 7.63686 17.6741 5.61741 16.0283 3.97168C14.3969 2.34025 12.3982 1.5152 10.0615 1.50098L10 1.2998L9.9375 1.50098ZM11.1221 8.34668L11.2305 8.7002H14.9365L12.21 10.6426L11.917 10.8516L12.0215 11.1953L13.0723 14.6641L10.3027 12.5527L10 12.3213L9.69727 12.5527L6.92676 14.6641L7.97852 11.1953L8.08301 10.8516L7.79004 10.6426L5.06348 8.7002H8.76953L8.87793 8.34668L10 4.69922L11.1221 8.34668Z" fill="#49454F"/>
<path d="M10 0.5C11.3183 0.5 12.5508 0.750248 13.7021 1.24707C14.8631 1.74806 15.8683 2.42493 16.7217 3.27832C17.5751 4.13171 18.2519 5.13694 18.7529 6.29785C19.2498 7.44922 19.5 8.68174 19.5 10C19.5 11.3183 19.2498 12.5508 18.7529 13.7021C18.2519 14.8631 17.5751 15.8683 16.7217 16.7217C15.8683 17.5751 14.8631 18.2519 13.7021 18.7529C12.5508 19.2498 11.3183 19.5 10 19.5C8.68174 19.5 7.44922 19.2498 6.29785 18.7529C5.13694 18.2519 4.13171 17.5751 3.27832 16.7217C2.42493 15.8683 1.74806 14.8631 1.24707 13.7021C0.750248 12.5508 0.5 11.3183 0.5 10C0.5 8.68174 0.750248 7.44922 1.24707 6.29785C1.74806 5.13694 2.42493 4.13171 3.27832 3.27832C4.13171 2.42493 5.13694 1.74806 6.29785 1.24707C7.44922 0.750248 8.68174 0.5 10 0.5ZM9.9375 1.50098C7.60124 1.51543 5.60288 2.34048 3.97168 3.97168C2.32595 5.61741 1.5 7.63686 1.5 10C1.5 12.3631 2.32595 14.3826 3.97168 16.0283C4.34949 16.4061 4.74818 16.739 5.16504 17.0303L5.07324 17.3359L5.32617 17.1416C6.68753 18.0458 8.24918 18.5 10 18.5C11.7505 18.5 13.3116 18.0455 14.6729 17.1416L14.9268 17.3359L14.834 17.0303C15.2511 16.7389 15.6503 16.4063 16.0283 16.0283C17.6741 14.3826 18.5 12.3631 18.5 10C18.5 7.63686 17.6741 5.61741 16.0283 3.97168C14.3969 2.34025 12.3982 1.5152 10.0615 1.50098L10 1.2998L9.9375 1.50098ZM11.1221 8.34668L11.2305 8.7002H14.9365L12.21 10.6426L11.917 10.8516L12.0215 11.1953L13.0723 14.6641L10.3027 12.5527L10 12.3213L9.69727 12.5527L6.92676 14.6641L7.97852 11.1953L8.08301 10.8516L7.79004 10.6426L5.06348 8.7002H8.76953L8.87793 8.34668L10 4.69922L11.1221 8.34668Z" stroke="black"/>
<path d="M10 0.5C11.3183 0.5 12.5508 0.750248 13.7021 1.24707C14.8631 1.74806 15.8683 2.42493 16.7217 3.27832C17.5751 4.13171 18.2519 5.13694 18.7529 6.29785C19.2498 7.44922 19.5 8.68174 19.5 10C19.5 11.3183 19.2498 12.5508 18.7529 13.7021C18.2519 14.8631 17.5751 15.8683 16.7217 16.7217C15.8683 17.5751 14.8631 18.2519 13.7021 18.7529C12.5508 19.2498 11.3183 19.5 10 19.5C8.68174 19.5 7.44922 19.2498 6.29785 18.7529C5.13694 18.2519 4.13171 17.5751 3.27832 16.7217C2.42493 15.8683 1.74806 14.8631 1.24707 13.7021C0.750248 12.5508 0.5 11.3183 0.5 10C0.5 8.68174 0.750248 7.44922 1.24707 6.29785C1.74806 5.13694 2.42493 4.13171 3.27832 3.27832C4.13171 2.42493 5.13694 1.74806 6.29785 1.24707C7.44922 0.750248 8.68174 0.5 10 0.5ZM9.9375 1.50098C7.60124 1.51543 5.60288 2.34048 3.97168 3.97168C2.32595 5.61741 1.5 7.63686 1.5 10C1.5 12.3631 2.32595 14.3826 3.97168 16.0283C4.34949 16.4061 4.74818 16.739 5.16504 17.0303L5.07324 17.3359L5.32617 17.1416C6.68753 18.0458 8.24918 18.5 10 18.5C11.7505 18.5 13.3116 18.0455 14.6729 17.1416L14.9268 17.3359L14.834 17.0303C15.2511 16.7389 15.6503 16.4063 16.0283 16.0283C17.6741 14.3826 18.5 12.3631 18.5 10C18.5 7.63686 17.6741 5.61741 16.0283 3.97168C14.3969 2.34025 12.3982 1.5152 10.0615 1.50098L10 1.2998L9.9375 1.50098ZM11.1221 8.34668L11.2305 8.7002H14.9365L12.21 10.6426L11.917 10.8516L12.0215 11.1953L13.0723 14.6641L10.3027 12.5527L10 12.3213L9.69727 12.5527L6.92676 14.6641L7.97852 11.1953L8.08301 10.8516L7.79004 10.6426L5.06348 8.7002H8.76953L8.87793 8.34668L10 4.69922L11.1221 8.34668Z" stroke="black" stroke-opacity="0.2"/>
</svg>
